<svg width="20" height="20" viewBox="0 0 20 20" fill="none" xmlns="http://www.w3.org/2000/svg">
<path d="M4.1418 8.11199C4.13799 7.93882 4.18819 7.76876 4.2855 7.62547C4.38281 7.48217 4.52241 7.37275 4.68478 7.31242C4.84714 7.2521 5.02425 7.24386 5.19151 7.28885C5.35878 7.33385 5.5078 7.42984 5.61799 7.56348L9.98647 12.6628L14.3534 7.56348C14.4214 7.47103 14.5076 7.39361 14.6069 7.33606C14.7061 7.27851 14.8162 7.24207 14.9302 7.22903C15.0442 7.21599 15.1596 7.22663 15.2693 7.26027C15.379 7.29392 15.4806 7.34985 15.5677 7.42456C15.6548 7.49927 15.7254 7.59116 15.7753 7.69447C15.8252 7.79777 15.8532 7.91027 15.8577 8.02492C15.8621 8.13956 15.8429 8.25389 15.8011 8.36073C15.7592 8.46758 15.6958 8.56464 15.6148 8.64584L10.6196 14.4841C10.5414 14.5757 10.4443 14.6494 10.3348 14.6998C10.2254 14.7503 10.1062 14.7765 9.9857 14.7765C9.86517 14.7765 9.74605 14.7503 9.6366 14.6998C9.52715 14.6494 9.42995 14.5757 9.35171 14.4841L4.35173 8.64584C4.22073 8.49836 4.14625 8.30919 4.14161 8.11199L4.1418 8.11199Z" fill="#181818"/>
</svg>
