<svg width="42" height="42" viewBox="0 0 42 42" fill="none" xmlns="http://www.w3.org/2000/svg">
<path d="M0 21C0 9.40313 9.40313 0 21 0C32.5969 0 42 9.40313 42 21C42 32.5969 32.5969 42 21 42C9.40313 42 0 32.5969 0 21ZM14.8547 25.875C15.3328 25.875 15.7875 25.6453 16.0687 25.2562L21 18.4406L25.9313 25.2562C26.2125 25.6453 26.6625 25.875 27.1453 25.875L29.3438 25.875C29.6484 25.875 29.8266 25.5281 29.6484 25.2797L21.3047 13.7484C21.2702 13.7005 21.2247 13.6615 21.1722 13.6346C21.1196 13.6077 21.0614 13.5936 21.0023 13.5936C20.9433 13.5936 20.8851 13.6077 20.8325 13.6346C20.7799 13.6615 20.7345 13.7005 20.7 13.7484L12.3563 25.2797C12.3156 25.3357 12.2912 25.4019 12.2858 25.471C12.2805 25.54 12.2943 25.6092 12.3259 25.6709C12.3574 25.7325 12.4054 25.7842 12.4646 25.8202C12.5237 25.8563 12.5917 25.8752 12.6609 25.875H14.8547Z" fill="#203E7A"/>
</svg>
