<svg width="41" height="38" viewBox="0 0 41 38" fill="none" xmlns="http://www.w3.org/2000/svg">
<path d="M36.2634 16.6921L40.2807 16.0258C38.5717 5.7211 29.5034 -0.760494 19.185 0.950708L19.8512 4.96815C28.0104 3.61504 34.9122 8.54469 36.2634 16.6921Z" fill="white"/>
<path d="M21.2029 12.9998C25.4271 12.2993 27.5277 13.8023 28.2283 18.0267L32.2455 17.3604C31.1712 10.8823 27.0146 7.90811 20.5367 8.9824L21.2029 12.9998ZM29.8897 22.7934C29.4456 22.5066 28.9074 22.4036 28.3887 22.5062C27.8701 22.6087 27.4116 22.9088 27.11 23.3431L23.1232 29.0837C21.9295 29.0546 19.4833 28.7152 16.6929 26.7239C13.9012 24.7246 12.7893 22.5127 12.3838 21.3994L16.5256 15.7714C16.8397 15.346 16.9761 14.815 16.9057 14.2908C16.8354 13.7667 16.5638 13.2904 16.1486 12.9629L7.37313 6.03235C6.95753 5.70367 6.43017 5.54995 5.90306 5.60383C5.37595 5.65772 4.89061 5.91497 4.55012 6.32096L0.811313 10.782C0.521843 11.1882 0.391498 11.6864 0.445004 12.1823C0.498156 12.6895 1.89646 24.6804 12.6505 32.3788C22.0313 39.0893 32.2083 38.0063 34.9842 37.5459C35.39 37.4786 35.6371 37.4253 35.7027 37.4103C36.1893 37.3013 36.6184 37.0162 36.9073 36.6099L39.9202 31.6293C40.1948 31.1762 40.282 30.6339 40.1632 30.1175C40.0444 29.6012 39.7291 29.1514 39.2841 28.8639L29.8897 22.7934Z" fill="white"/>
</svg>
