<svg width="61" height="61" viewBox="0 0 61 61" fill="none" xmlns="http://www.w3.org/2000/svg">
<path d="M0 29.5089V29.4226C0.76569 19.4144 4.33891 11.9083 10.5495 7.16309C16.675 2.33157 23.311 0.00208771 30.5425 0.00208771C38.1144 -0.0841894 45.1757 2.50412 51.4714 7.68075C57.8522 12.7711 61 20.3635 61 30.1991V30.803C61 40.7249 57.8522 48.1447 51.4714 53.2351C45.0907 58.4117 38.0293 61 30.4575 61H30.1172C22.7155 60.9137 15.9093 58.3254 9.61367 53.1488C3.31799 48.0584 0.0850767 40.2072 0 29.5089ZM28.6708 15.9634V2.33157H26.629C26.2036 2.84923 25.8633 3.45317 25.523 3.97083C25.1827 4.4885 24.8424 5.00616 24.5021 5.6101C24.1618 6.12776 23.7364 6.81798 23.4812 7.33564C23.1409 7.8533 22.8856 8.37097 22.6304 8.97491C22.1199 9.83768 21.6946 10.7004 21.3543 11.4769C20.9289 12.2534 20.5886 13.0299 20.3333 13.7201C20.8438 14.0653 21.4393 14.4966 22.1199 14.7555C22.8856 15.0143 23.6513 15.2731 24.417 15.4457C25.2678 15.6182 26.0335 15.7045 26.7141 15.7908C27.4798 15.8771 28.1604 15.9634 28.6708 15.9634ZM32.2441 2.33157V15.8771C32.6695 15.8771 33.1799 15.9634 33.6904 15.8771C34.2008 15.8771 34.7964 15.7908 35.3068 15.7045C36.2427 15.532 37.3487 15.2731 38.1994 15.0143C39.1353 14.6692 39.9861 14.2378 40.5816 13.7201C39.5607 11.2181 38.4547 9.23374 37.3487 7.33564C36.2427 5.43755 34.9665 3.79828 33.6053 2.41785V2.33157H32.2441ZM23.0558 3.10806V3.02179C22.4603 3.28062 21.8647 3.712 21.1841 3.97083C20.5886 4.22967 19.8229 4.57477 19.2273 4.91988C18.0363 5.52382 16.8452 6.21404 15.6541 6.99053C14.5481 7.76703 13.4421 8.6298 12.5063 9.49257C12.8466 9.83768 13.272 10.1828 13.6123 10.4416C13.9526 10.7004 14.378 11.0456 14.8033 11.3907C15.1437 11.5632 15.569 11.8221 15.9944 12.1672C16.4198 12.426 16.9303 12.7711 17.4407 13.1162C18.1213 11.5632 18.802 9.92396 19.6527 8.45724C20.5035 6.90426 21.4393 5.43755 22.3752 4.14339C22.4603 3.97083 22.5453 3.79828 22.7155 3.62573C22.8006 3.53945 22.8856 3.28062 23.0558 3.10806ZM49.0893 9.49257V9.40629C46.9623 7.76703 45.0907 6.38659 43.219 5.52382C41.3473 4.66105 39.4756 3.79828 37.7741 3.10806C39.1353 4.4885 40.3264 6.21404 41.092 7.8533C41.9428 9.57885 42.7936 11.3907 43.4742 13.1162C43.8145 12.9437 44.2399 12.7711 44.7503 12.426C45.1757 12.1672 45.7713 11.9083 46.2817 11.6495C46.7922 11.3044 47.2176 10.9593 47.728 10.6142C48.2385 10.1828 48.749 9.83768 49.0893 9.49257ZM47.643 28.7324H57.4268C57.4268 25.5401 56.7462 22.5204 55.47 19.4144C54.2789 16.3947 52.5774 13.8927 50.4505 11.7358V11.6495C50.0251 12.3397 49.4296 12.9437 48.834 13.375C48.1534 13.8064 47.5579 14.1515 46.8773 14.4966C46.4519 14.7555 46.0265 15.1006 45.6011 15.2731C45.1757 15.532 44.5802 15.7045 44.1548 15.9634C44.4951 16.6536 44.8354 17.4301 45.1757 18.1203C45.431 18.8968 45.8563 19.7595 46.0265 20.536C46.537 21.9165 46.8773 23.3832 47.2176 24.8499C47.4728 26.1441 47.643 27.5245 47.643 28.7324ZM16.8452 15.9634V15.8771C16.1646 15.532 15.3989 15.2731 14.8033 14.928C14.2078 14.4966 13.6123 14.0653 13.1018 13.7201C12.5914 13.4613 12.0809 13.1162 11.6555 12.7711C11.2301 12.426 10.8898 12.0809 10.5495 11.7358C8.33752 13.8927 6.72106 16.3085 5.70014 19.1556C4.59414 22.0028 3.82845 25.195 3.48815 28.6461H13.9526C13.9526 26.2303 14.2929 23.9008 14.8884 21.5714C15.3989 19.1556 16.1646 17.3438 16.8452 15.9634ZM28.6708 28.6461V18.7242C27.9902 18.8105 27.1395 18.8105 26.3738 18.7242C25.523 18.6379 24.6722 18.3791 23.9066 18.1203C23.2259 17.9477 22.3752 17.7752 21.6946 17.5163C20.9289 17.3438 20.1632 16.9987 19.5676 16.6536C19.0572 17.5163 18.6318 18.5517 18.2915 19.6733C17.8661 20.7086 17.6109 21.8302 17.3556 22.8655C17.1855 23.9008 17.1004 25.0224 17.0153 25.9715C16.9303 26.9205 16.8452 27.8696 16.8452 28.6461H28.6708ZM32.2441 18.8968V28.6461H44.8354C44.8354 28.1284 44.8354 27.5245 44.7503 26.8343C44.5802 26.2303 44.4951 25.4538 44.41 24.7636C44.1548 23.7283 43.8996 22.6067 43.5593 21.5714C43.219 20.6223 42.8787 19.6733 42.4533 18.8968C42.2831 18.4654 42.113 17.9477 41.9428 17.6026C41.6876 17.1712 41.4324 16.9124 41.2622 16.6536C40.3264 17.3438 39.0502 17.7752 37.5188 18.1203C36.0725 18.4654 34.371 18.8105 32.8396 18.8968H32.2441ZM13.9526 31.4932H3.48815C3.48815 32.9599 3.74338 34.5992 4.16876 36.5836C4.59414 38.6542 5.44491 40.5523 6.38075 42.623C6.80614 43.6583 7.3166 44.6936 7.82706 45.729C8.42259 46.678 9.10321 47.7133 9.78382 48.6624C10.2943 48.3173 10.8047 48.0584 11.2301 47.7996C11.7406 47.5408 12.3361 47.1957 12.8466 46.9368C13.4421 46.678 14.0377 46.4192 14.7183 46.0741C15.3138 45.8152 16.0795 45.4701 16.8452 45.125C16.1646 42.9681 15.3989 40.8974 14.8884 38.568C14.2929 36.3247 13.9526 34.0815 13.9526 31.5795V31.4932ZM28.6708 41.5877V31.4932H16.8452C16.8452 32.1834 16.9303 33.2188 17.1004 34.2541C17.1855 35.2894 17.4407 36.411 17.6109 37.5326C17.9512 38.7405 18.2064 39.9484 18.5467 40.9837C18.887 42.019 19.2273 42.8818 19.5676 43.6583C21.099 43.0544 22.6304 42.623 23.6513 42.3641C24.7573 42.019 25.7782 41.7602 26.7992 41.6739H27.735C28.0753 41.5877 28.4156 41.5877 28.6708 41.5877ZM32.2441 31.4932V41.5014C32.8396 41.5877 33.5202 41.6739 34.2008 41.7602C34.9665 41.8465 35.9024 42.019 36.6681 42.1916L37.9442 42.4504C38.3696 42.623 38.8801 42.7093 39.3054 42.7955C39.8159 42.9681 40.3264 43.0544 40.8368 43.2269C41.2622 43.3995 41.6876 43.4858 42.0279 43.6583C43.1339 40.8112 43.8145 38.4817 44.2399 36.4973C44.6653 34.5992 44.8354 32.9599 44.8354 31.5795V31.4932H32.2441ZM57.4268 31.4932H47.643V32.0109C47.5579 33.6502 47.3027 35.5483 46.9623 37.5326C46.622 39.4307 45.8563 41.6739 44.8354 44.4348C46.1967 45.125 47.4728 45.8152 48.4937 46.5054C49.5146 47.1957 50.4505 47.9722 51.1311 48.6624C52.5774 47.1957 53.8536 45.2113 54.9596 42.623C56.0656 40.1209 56.8312 37.5326 57.2566 34.7718C57.3417 34.2541 57.3417 33.7364 57.4268 33.2188V31.4932ZM28.6708 57.8077V44.3485C26.5439 44.6936 24.7573 45.125 23.3961 45.4701C22.0349 45.8152 21.0139 46.1603 20.3333 46.5054C20.8438 47.7996 21.3543 48.9212 21.8647 49.9565C22.3752 50.9056 22.9707 51.9409 23.4812 52.8037C23.6513 53.1488 23.9916 53.4939 24.2469 53.9253C24.5021 54.2704 24.6722 54.7018 24.9275 55.0469C25.1827 55.4783 25.4379 55.9959 25.6932 56.5136C26.0335 56.945 26.2887 57.4626 26.629 57.8077H28.6708ZM32.2441 57.8077H34.2008C34.9665 57.2038 35.7322 56.341 36.3278 55.392C37.0084 54.4429 37.7741 53.3213 38.2845 52.3723C38.8801 51.2507 39.4756 50.2154 39.9861 49.18C40.4965 48.1447 40.9219 47.1957 41.2622 46.5054C40.3264 46.1603 39.0502 45.8152 37.7741 45.4701C36.4979 45.125 34.7113 44.7799 32.2441 44.4348V57.8077ZM49.0893 50.733V50.6467C48.9191 50.3879 48.5788 50.0428 48.3236 49.784C48.0683 49.5251 47.643 49.18 47.2176 48.9212C46.8773 48.6624 46.4519 48.4035 45.9414 48.1447C45.431 47.8859 44.7504 47.5408 44.1548 47.1957C43.8145 47.8859 43.219 49.0938 42.3682 50.733C41.6025 52.3723 40.2413 54.3567 38.5397 56.5136C40.6667 56.1685 42.5384 55.392 44.2399 54.3567C46.1116 53.4076 47.728 52.1135 49.0893 50.733ZM17.4407 47.9722V47.8859C16.8452 48.231 15.9093 48.6624 14.9735 49.0938C13.9526 49.5251 12.8466 50.0428 11.8257 50.733C12.4212 51.2507 13.0167 51.7683 13.5272 52.1135C14.0377 52.5448 14.6332 52.8899 15.1437 53.2351C16.0795 53.839 17.1855 54.4429 18.2915 54.9606C19.3975 55.4783 20.7587 55.9959 22.4603 56.5136C21.8647 55.8234 21.4393 54.9606 21.0139 54.2704C20.5886 53.5802 20.0781 52.8899 19.6527 52.1997C19.2273 51.5095 18.887 50.733 18.5467 50.0428C18.1213 49.3526 17.781 48.6624 17.4407 47.9722Z" fill="#F17E01"/>
</svg>
