<svg width="43" height="43" viewBox="0 0 43 43" fill="none" xmlns="http://www.w3.org/2000/svg">
<path d="M21.5058 14.3303C25.4536 14.3303 28.6754 17.5521 28.6754 21.5C28.6754 25.4479 25.4536 28.6697 21.5058 28.6697C17.5579 28.6697 14.3362 25.4479 14.3362 21.5C14.3362 17.5521 17.5579 14.3303 21.5058 14.3303ZM0.00240058 21.5C0.00240058 18.531 -0.0244934 15.5889 0.142241 12.6253C0.308976 9.18293 1.09424 6.12786 3.6114 3.61066C6.13393 1.08808 9.18356 0.308182 12.6258 0.141444C15.5948 -0.0252934 18.5368 0.00159984 21.5004 0.00159984C24.4694 0.00159984 27.4114 -0.0252934 30.375 0.141444C33.8172 0.308182 36.8722 1.09346 39.3894 3.61066C41.9119 6.13324 42.6918 9.18293 42.8586 12.6253C43.0253 15.5943 42.9984 18.5364 42.9984 21.5C42.9984 24.4636 43.0253 27.4111 42.8586 30.3747C42.6918 33.8171 41.9066 36.8721 39.3894 39.3893C36.8669 41.9119 33.8172 42.6918 30.375 42.8586C27.406 43.0253 24.464 42.9984 21.5004 42.9984C18.5315 42.9984 15.5894 43.0253 12.6258 42.8586C9.18356 42.6918 6.12855 41.9065 3.6114 39.3893C1.08886 36.8668 0.308976 33.8171 0.142241 30.3747C-0.0298719 27.4111 0.00240058 24.469 0.00240058 21.5ZM21.5058 32.5316C27.6104 32.5316 32.5372 27.6047 32.5372 21.5C32.5372 15.3952 27.6104 10.4684 21.5058 10.4684C15.4011 10.4684 10.4744 15.3952 10.4744 21.5C10.4744 27.6047 15.4011 32.5316 21.5058 32.5316ZM10.0226 12.593C11.4479 12.593 12.5989 11.442 12.5989 10.0166C12.5989 8.59128 11.4479 7.44025 10.0226 7.44025C8.5973 7.44025 7.44629 8.59128 7.44629 10.0166C7.44586 10.3551 7.51222 10.6903 7.64154 11.003C7.77086 11.3158 7.96061 11.6 8.19993 11.8393C8.43925 12.0787 8.72343 12.2684 9.03619 12.3977C9.34896 12.5271 9.68416 12.5934 10.0226 12.593Z" fill="#203E7A"/>
</svg>
