<svg width="40" height="37" viewBox="0 0 40 37" fill="none" xmlns="http://www.w3.org/2000/svg">
<path d="M40 17.3461C40 26.9262 31.045 34.6923 20 34.6923C18.0191 34.6949 16.0465 34.44 14.1325 33.934C12.6725 34.6675 9.32 36.075 3.68 36.9919C3.18 37.0712 2.8 36.5557 2.9975 36.0948C3.8825 34.0232 4.6825 31.2627 4.9225 28.745C1.86 25.6971 0 21.7074 0 17.3461C0 7.76611 8.955 0 20 0C31.045 0 40 7.76611 40 17.3461ZM12.5 17.3461C12.5 16.6889 12.2366 16.0586 11.7678 15.5939C11.2989 15.1292 10.663 14.8681 10 14.8681C9.33696 14.8681 8.70107 15.1292 8.23223 15.5939C7.76339 16.0586 7.5 16.6889 7.5 17.3461C7.5 18.0033 7.76339 18.6336 8.23223 19.0984C8.70107 19.5631 9.33696 19.8242 10 19.8242C10.663 19.8242 11.2989 19.5631 11.7678 19.0984C12.2366 18.6336 12.5 18.0033 12.5 17.3461ZM22.5 17.3461C22.5 16.6889 22.2366 16.0586 21.7678 15.5939C21.2989 15.1292 20.663 14.8681 20 14.8681C19.337 14.8681 18.7011 15.1292 18.2322 15.5939C17.7634 16.0586 17.5 16.6889 17.5 17.3461C17.5 18.0033 17.7634 18.6336 18.2322 19.0984C18.7011 19.5631 19.337 19.8242 20 19.8242C20.663 19.8242 21.2989 19.5631 21.7678 19.0984C22.2366 18.6336 22.5 18.0033 22.5 17.3461ZM30 19.8242C30.663 19.8242 31.2989 19.5631 31.7678 19.0984C32.2366 18.6336 32.5 18.0033 32.5 17.3461C32.5 16.6889 32.2366 16.0586 31.7678 15.5939C31.2989 15.1292 30.663 14.8681 30 14.8681C29.337 14.8681 28.7011 15.1292 28.2322 15.5939C27.7634 16.0586 27.5 16.6889 27.5 17.3461C27.5 18.0033 27.7634 18.6336 28.2322 19.0984C28.7011 19.5631 29.337 19.8242 30 19.8242Z" fill="white"/>
</svg>
