<svg width="45" height="45" viewBox="0 0 45 45" fill="none" xmlns="http://www.w3.org/2000/svg">
<path d="M26.1562 22.5L20.25 19.125V25.875L26.1562 22.5Z" fill="#203E7A"/>
<path fill-rule="evenodd" clip-rule="evenodd" d="M0 22.5C0 10.0736 10.0736 0 22.5 0C34.9265 0 45 10.0736 45 22.5C45 34.9265 34.9265 45 22.5 45C10.0736 45 0 34.9265 0 22.5ZM31.2188 15.0469C32.2031 15.3281 32.9062 16.0312 33.1875 17.0156C33.75 18.8438 33.75 22.5 33.75 22.5C33.75 22.5 33.75 26.1562 33.3281 27.9844C33.0469 28.9688 32.3438 29.6719 31.3594 29.9531C29.5312 30.375 22.5 30.375 22.5 30.375C22.5 30.375 15.3281 30.375 13.6406 29.9531C12.6562 29.6719 11.9531 28.9688 11.6719 27.9844C11.25 26.1562 11.25 22.5 11.25 22.5C11.25 22.5 11.25 18.8438 11.5312 17.0156C11.8125 16.0312 12.5156 15.3281 13.5 15.0469C15.3281 14.625 22.3594 14.625 22.3594 14.625C22.3594 14.625 29.5312 14.625 31.2188 15.0469Z" fill="#203E7A"/>
</svg>
